<?xml version="1.0" encoding="UTF-8" standalone="no"?><!DOCTYPE svg PUBLIC "-//W3C//DTD SVG 1.1//EN" "http://www.w3.org/Graphics/SVG/1.1/DTD/svg11.dtd"><svg width="100%" height="100%" viewBox="0 0 2286 2286" version="1.1" xmlns="http://www.w3.org/2000/svg" xmlns:xlink="http://www.w3.org/1999/xlink" xml:space="preserve" xmlns:serif="http://www.serif.com/" style="fill-rule:evenodd;clip-rule:evenodd;stroke-linejoin:round;stroke-miterlimit:2;"><g><g><path d="M1070.921,66.143c591.285,0 990.807,339.583 990.807,842.986l0,858.985c0,131.822 31.998,299.698 79.995,411.466l-826.987,0l0,-215.648c-115.823,155.708 -279.643,255.758 -519.402,255.758c-415.522,0 -651.224,-283.699 -651.224,-663.167c0,-527.289 463.518,-847.042 1162.514,-850.873c-23.886,-339.583 -115.823,-555.231 -247.645,-555.231c-115.823,0 -243.589,183.875 -327.64,483.348l-507.459,-247.645c155.708,-187.706 479.292,-319.528 847.042,-319.528l-0,-0.451Zm243.589,1745.912l0,-902.926c0,-39.885 -4.056,-83.825 -4.056,-119.879c-255.758,0 -419.578,267.7 -419.578,787.102c0,323.584 67.826,479.292 183.875,479.292c83.825,0 163.82,-91.938 239.759,-243.589Z" style="fill:#2b549e;fill-rule:nonzero;"/></g></g></svg>