<?xml version="1.0" encoding="UTF-8"?>
<svg id="Ebene_1" xmlns="http://www.w3.org/2000/svg" viewBox="0 0 504.98 157.85">
  <defs>
    <style>
      .cls-1 {
        fill: #f0832a;
      }

      .cls-2 {
        fill: #2b549e;
      }
    </style>
  </defs>
  <g>
    <path class="cls-2" d="M66.03,62.29c26.24,0,43.97,15.07,43.97,37.41v38.12c0,5.85,1.42,13.3,3.55,18.26h-36.7v-9.57c-5.14,6.91-12.41,11.35-23.05,11.35-18.44,0-28.9-12.59-28.9-29.43,0-23.4,20.57-37.59,51.59-37.76-1.06-15.07-5.14-24.64-10.99-24.64-5.14,0-10.81,8.16-14.54,21.45l-22.52-10.99c6.91-8.33,21.27-14.18,37.59-14.18ZM76.84,139.77v-40.07c0-1.77-.18-3.72-.18-5.32-11.35,0-18.62,11.88-18.62,34.93,0,14.36,3.01,21.27,8.16,21.27,3.72,0,7.27-4.08,10.64-10.81Z"/>
    <path class="cls-2" d="M143.01,103.12c11.42,0,20.23,4.11,24.24,10.12l-12.82,6.11c-.2-8.51-3.51-14.12-9.42-14.12-4.31,0-7.21,2.8-7.21,6.81,0,12.42,29.45,15.03,29.45,30.35,0,8.71-9.82,14.83-23.94,14.83-11.42,0-20.33-4.01-24.24-10.02l12.82-6.21c.2,8.61,3.51,14.22,9.02,14.22,4.31,0,7.61-3.51,7.61-7.41,0-11.82-29.45-14.42-29.45-29.75,0-8.71,9.82-14.93,23.94-14.93Z"/>
    <path class="cls-2" d="M196.61,103.12c11.42,0,20.23,4.11,24.24,10.12l-12.82,6.11c-.2-8.51-3.51-14.12-9.42-14.12-4.31,0-7.21,2.8-7.21,6.81,0,12.42,29.45,15.03,29.45,30.35,0,8.71-9.82,14.83-23.94,14.83-11.42,0-20.33-4.01-24.24-10.02l12.82-6.21c.2,8.61,3.51,14.22,9.02,14.22,4.31,0,7.61-3.51,7.61-7.41,0-11.82-29.45-14.42-29.45-29.75,0-8.71,9.82-14.93,23.94-14.93Z"/>
    <path class="cls-2" d="M247.91,104.22v41.67c0,3.31.8,7.51,2,10.32h-22.84c1.2-2.8,2.1-7.01,2.1-10.32v-31.35c0-3.41-.9-7.51-2.1-10.32h20.84ZM229.18,88.7c0-5.61,3.71-9.32,9.32-9.32s9.42,3.71,9.42,9.32-3.81,9.42-9.42,9.42-9.32-3.81-9.32-9.42Z"/>
    <path class="cls-2" d="M280.07,103.12c11.42,0,20.23,4.11,24.24,10.12l-12.82,6.11c-.2-8.51-3.51-14.12-9.42-14.12-4.31,0-7.21,2.8-7.21,6.81,0,12.42,29.45,15.03,29.45,30.35,0,8.71-9.82,14.83-23.94,14.83-11.42,0-20.33-4.01-24.24-10.02l12.82-6.21c.2,8.61,3.51,14.22,9.02,14.22,4.31,0,7.61-3.51,7.61-7.41,0-11.82-29.45-14.42-29.45-29.75,0-8.71,9.82-14.93,23.94-14.93Z"/>
    <path class="cls-2" d="M377.35,103.22c14.83,0,24.84,8.51,24.84,21.14v21.54c0,3.31.8,7.51,2,10.32h-20.74v-5.41c-2.9,3.91-7.01,6.41-13.02,6.41-10.42,0-16.33-7.11-16.33-16.63,0-13.22,11.62-21.24,29.15-21.34-.6-8.51-2.9-13.92-6.21-13.92-2.9,0-6.11,4.61-8.21,12.12l-12.72-6.21c3.91-4.71,12.02-8.01,21.24-8.01ZM383.46,146.99v-22.64c0-1-.1-2.1-.1-3.01-6.41,0-10.52,6.71-10.52,19.73,0,8.11,1.7,12.02,4.61,12.02,2.1,0,4.11-2.3,6.01-6.11Z"/>
    <path class="cls-2" d="M431.45,104.22v18.63c3.81-9.72,12.22-18.53,19.33-18.53v13.82c-11.82,0-19.33,5.21-19.33,14.42v13.32c0,3.31.8,7.51,2,10.32h-22.84c1.2-2.8,2.1-7.01,2.1-10.32v-31.35c0-3.41-.9-7.51-2.1-10.32h20.84Z"/>
    <path class="cls-2" d="M478.14,103.22c14.83,0,24.84,8.51,24.84,21.14v21.54c0,3.31.8,7.51,2,10.32h-20.74v-5.41c-2.9,3.91-7.01,6.41-13.02,6.41-10.42,0-16.33-7.11-16.33-16.63,0-13.22,11.62-21.24,29.15-21.34-.6-8.51-2.9-13.92-6.21-13.92-2.9,0-6.11,4.61-8.21,12.12l-12.72-6.21c3.91-4.71,12.02-8.01,21.24-8.01ZM484.25,146.99v-22.64c0-1-.1-2.1-.1-3.01-6.41,0-10.52,6.71-10.52,19.73,0,8.11,1.7,12.02,4.61,12.02,2.1,0,4.11-2.3,6.01-6.11Z"/>
  </g>
  <path class="cls-1" d="M341.61,94.93v11.4h-10.02v33.56c0,7.31,2.9,12.02,7.21,12.02,3.61,0,7.01-3.51,9.42-8.92l1.8.8c-3.31,8.01-11.22,13.42-19.63,13.42-10.42,0-17.53-6.91-17.53-17.33v-33.56h-6.11v-11.3c11.42,0,21.34-3.56,24.84-12.38v12.2l10.02.09Z"/>
</svg>